<svg xmlns="http://www.w3.org/2000/svg"><symbol id="icon-clock" viewBox="0 0 380 380"><path d="M190 0C85.232 0 0 85.234 0 190s85.232 190 190 190c104.767 0 190-85.232 190-190C380 85.233 294.767 0 190 0zm79.9 316.893l-8.188-14.084a5.322 5.322 0 0 0-4.587-2.635 5.2 5.2 0 0 0-2.648.719 5.255 5.255 0 0 0-2.458 3.221 5.276 5.276 0 0 0 .542 4.017l8.199 14.101a148.912 148.912 0 0 1-60.76 17.43V319.77c0-5.522-4.479-10-10-10-5.522 0-10 4.478-10 10v19.89a148.887 148.887 0 0 1-59.949-17.002l8.111-14.149a5.258 5.258 0 0 0 .517-4.018 5.257 5.257 0 0 0-2.475-3.205 5.212 5.212 0 0 0-2.624-.704 5.321 5.321 0 0 0-4.603 2.663l-8.102 14.133a151.212 151.212 0 0 1-45.447-43.908l17.188-9.923c4.782-2.761 6.421-8.877 3.659-13.66-2.761-4.782-8.877-6.421-13.659-3.659l-17.212 9.937c-9.056-18.349-14.466-38.8-15.284-60.41l16.33-.05c1.414-.004 2.741-.559 3.737-1.561s1.543-2.334 1.538-3.748a5.302 5.302 0 0 0-5.293-5.276l-16.348.05c.699-21.949 6.136-42.72 15.319-61.327l17.212 9.937a9.996 9.996 0 0 0 13.659-3.66c2.762-4.783 1.123-10.899-3.659-13.66l-17.188-9.923a151.174 151.174 0 0 1 44.671-43.424l8.188 14.084a5.228 5.228 0 0 0 1.935 1.929 5.344 5.344 0 0 0 5.299-.013 5.255 5.255 0 0 0 2.458-3.223 5.256 5.256 0 0 0-.541-4.013l-8.198-14.102a148.905 148.905 0 0 1 60.76-17.43v19.889c0 5.523 4.478 10 10 10s10-4.477 10-10V40.345a148.882 148.882 0 0 1 59.947 17.001l-8.111 14.149a5.3 5.3 0 0 0 4.583 7.927c1.897 0 3.66-1.02 4.6-2.661l8.104-14.135a151.187 151.187 0 0 1 45.449 43.909l-17.188 9.923c-4.783 2.761-6.421 8.877-3.659 13.66a9.998 9.998 0 0 0 13.659 3.66l17.212-9.937c9.057 18.348 14.466 38.8 15.284 60.41l-16.33.05a5.252 5.252 0 0 0-3.736 1.561 5.257 5.257 0 0 0-1.538 3.747 5.317 5.317 0 0 0 2.668 4.583c.794.455 1.7.694 2.623.694h.017l16.333-.05c-.699 21.949-6.136 42.721-15.319 61.327l-17.212-9.937c-4.784-2.762-10.897-1.123-13.659 3.66-2.762 4.782-1.124 10.898 3.659 13.659l17.188 9.923a151.257 151.257 0 0 1-44.673 43.425z" data-original="#000000" class="active-path" data-old_color="#FF5D5D"/><path d="M263.906 135.775l-64.141 35.588a20.944 20.944 0 0 0-9.767-2.412c-3.528 0-6.846.878-9.766 2.412l-64.141-35.588c-6.064-3.366-13.711-1.176-17.078 4.889-3.364 6.065-1.176 13.711 4.891 17.077l65.443 36.311c1.891 9.685 10.412 16.997 20.65 16.997 10.238 0 18.76-7.312 20.65-16.997l65.442-36.311c6.066-3.365 8.254-11.011 4.89-17.077-3.361-6.066-11.006-8.255-17.073-4.889z" data-original="#000000" class="active-path" data-old_color="#FF5D5D"/></symbol><symbol id="icon-email" viewBox="0 0 31.012 31.012"><path d="M25.109 21.51a.495.495 0 0 1-.342-.136l-5.754-5.398a.5.5 0 1 1 .685-.728l5.754 5.398a.5.5 0 0 1-.343.864zm-19.207 0a.5.5 0 0 1-.343-.864l5.756-5.398a.5.5 0 0 1 .685.728l-5.756 5.398a.495.495 0 0 1-.342.136z"/><path d="M28.512 26.529H2.5a2.503 2.503 0 0 1-2.5-2.5V6.982c0-1.379 1.122-2.5 2.5-2.5h26.012c1.378 0 2.5 1.121 2.5 2.5v17.047c0 1.379-1.122 2.5-2.5 2.5zM2.5 5.482c-.827 0-1.5.673-1.5 1.5v17.047c0 .827.673 1.5 1.5 1.5h26.012c.827 0 1.5-.673 1.5-1.5V6.982c0-.827-.673-1.5-1.5-1.5H2.5z"/><path d="M15.506 18.018c-.665 0-1.33-.221-1.836-.662L.83 6.155a.501.501 0 0 1-.049-.706.503.503 0 0 1 .706-.048l12.84 11.2c.639.557 1.719.557 2.357 0L29.508 5.419a.5.5 0 0 1 .658.754L17.342 17.355c-.507.442-1.171.663-1.836.663z"/></symbol><symbol id="icon-gift" viewBox="0 0 512 512"><path d="M32 271.692v192c0 17.664 14.368 32 32 32h160v-224H32zm448-128H378.752c7.264-4.96 13.504-9.888 17.856-14.304 25.824-25.952 25.824-68.192 0-94.144-25.088-25.28-68.8-25.216-93.856 0-13.888 13.92-50.688 70.592-45.6 108.448h-2.304c5.056-37.856-31.744-94.528-45.6-108.448-25.088-25.216-68.8-25.216-93.856 0-25.792 25.952-25.792 68.192-.032 94.144 4.384 4.416 10.624 9.344 17.888 14.304H32c-17.632 0-32 14.368-32 32v48c0 8.832 7.168 16 16 16h208v-64h64v64h208c8.832 0 16-7.168 16-16v-48c0-17.632-14.336-32-32-32zm-257.888-1.056s-1.344 1.056-5.92 1.056c-22.112 0-64.32-22.976-78.112-36.864-13.408-13.504-13.408-35.52 0-49.024 6.496-6.528 15.104-10.112 24.256-10.112 9.12 0 17.728 3.584 24.224 10.112 21.568 21.696 43.008 77.12 35.552 84.832zm73.664 1.056c-4.544 0-5.888-1.024-5.888-1.056-7.456-7.712 13.984-63.136 35.552-84.832 12.896-13.024 35.456-13.088 48.48 0 13.44 13.504 13.44 35.52 0 49.024-13.792 13.888-56 36.864-78.144 36.864zm-7.776 128v224h160c17.664 0 32-14.336 32-32v-192H288z"/></symbol><symbol id="icon-phone"><path d="M340.273 275.083l-53.755-53.761c-10.707-10.664-28.438-10.34-39.518.744l-27.082 27.076a792.327 792.327 0 0 1-5.344-2.973c-17.102-9.476-40.509-22.464-65.14-47.113-24.704-24.701-37.704-48.144-47.209-65.257-1.003-1.813-1.964-3.561-2.913-5.221l18.176-18.149 8.936-8.947c11.097-11.1 11.403-28.826.721-39.521L73.39 8.194c-10.682-10.68-28.421-10.356-39.518.744l-15.15 15.237.414.411c-5.08 6.482-9.325 13.958-12.484 22.02C3.74 54.28 1.927 61.603 1.098 68.941-6 127.785 20.89 181.564 93.866 254.541c100.875 100.868 182.167 93.248 185.674 92.876 7.638-.913 14.958-2.738 22.397-5.627 7.992-3.122 15.463-7.361 21.941-12.43l.331.294 15.348-15.029c11.074-11.098 11.393-28.83.716-39.542z"/></symbol></svg>