<?xml version="1.0" encoding="UTF-8"?>
<!DOCTYPE svg PUBLIC "-//W3C//DTD SVG 1.1//EN" "http://www.w3.org/Graphics/SVG/1.1/DTD/svg11.dtd">
<svg xmlns="http://www.w3.org/2000/svg" xml:space="preserve" width="150" height="150" version="1.1" style="shape-rendering:geometricPrecision; text-rendering:geometricPrecision; image-rendering:optimizeQuality; fill-rule:evenodd; clip-rule:evenodd"
viewBox="0 0 572 572"
 xmlns:xlink="http://www.w3.org/1999/xlink">
 <defs>
  <style type="text/css">
   <![CDATA[
    .fil1 {fill:#FEFEFE}
    .fil0 {fill:#55BD00}
    .fil2 {fill:white}
   ]]>
  </style>
 </defs>
 <g id="layer_x0020_1">
  <metadata id="meta_data_id_layer_x0020_1"/>
  <path class="fil0" d="M286 6c-155,0 -280,125 -280,280 0,155 125,280 280,280 155,0 280,-125 280,-280 0,-155 -125,-280 -280,-280l0 0z"/>
  <path class="fil1" d="M288 115c46,0 89,19 119,50 31,30 50,73 50,119 0,3 0,0 0,2l0 0 -29 0c0,0 0,-1 0,-1 0,-1 0,3 0,-1 0,-39 -16,-74 -41,-99 -25,-26 -61,-41 -99,-41 -3,0 0,0 -1,0l0 0 -1 0 0 -29 0 0c2,0 0,0 2,0zm0 62c29,0 56,12 75,31 20,20 32,47 32,76 0,3 0,-1 0,2l0 0 -29 0 0 -1c0,-1 0,3 0,-1 0,-21 -9,-41 -23,-55 -14,-14 -34,-23 -55,-23 -4,0 0,0 -1,0l-1 0 0 -29 0 0c3,0 -1,0 2,0z"/>
  <path class="fil2" d="M423 397l-2 -5c-4,-11 -16,-22 -27,-25l-41 -12c-12,-3 -28,1 -36,10l-15 15c-54,-15 -97,-58 -112,-112l15 -15c9,-8 13,-24 10,-36l-12 -41c-3,-11 -14,-23 -25,-27l-5 -2c-11,-3 -27,1 -35,9l-22 22c-4,4 -7,15 -7,16 -1,71 27,139 78,189 50,51 118,78 189,78 0,0 12,-3 16,-7l22 -22c9,-8 12,-24 9,-35z"/>
  <path class="fil1" d="M286 0c79,0 150,32 202,84 52,52 84,123 84,202 0,79 -32,150 -84,202 -52,52 -123,84 -202,84 -79,0 -150,-32 -202,-84 -52,-52 -84,-123 -84,-202 0,-79 32,-150 84,-202 52,-52 123,-84 202,-84zm193 92c-49,-49 -117,-80 -193,-80 -76,0 -144,31 -194,80 -49,50 -80,118 -80,194 0,76 31,144 80,193 50,50 118,81 194,81 76,0 144,-31 193,-81 50,-49 81,-117 81,-193 0,-76 -31,-144 -81,-194z"/>
 </g>
</svg>
